<?xml version="1.0" standalone="no"?>
<!DOCTYPE svg PUBLIC "-//W3C//DTD SVG 20010904//EN"
 "http://www.w3.org/TR/2001/REC-SVG-20010904/DTD/svg10.dtd">
<svg version="1.0" xmlns="http://www.w3.org/2000/svg"
 width="225.000000pt" height="225.000000pt" viewBox="0 0 225.000000 225.000000"
 preserveAspectRatio="xMidYMid meet">
<metadata>
Created by potrace 1.14, written by Peter Selinger 2001-2017
</metadata>
<g transform="translate(0.000000,225.000000) scale(0.100000,-0.100000)"
fill="#000000" stroke="none">
<path d="M960 1970 c-350 -93 -570 -410 -530 -764 28 -240 168 -441 386 -550
78 -39 127 -53 234 -70 l75 -11 3 -113 c1 -61 4 -112 7 -112 2 0 30 14 62 31
142 77 300 199 398 309 159 178 246 417 232 634 -12 177 -68 313 -181 433
-144 154 -288 221 -496 229 -94 3 -129 0 -190 -16z m98 -645 c2 -102 -1 -185
-8 -207 -20 -70 -93 -131 -165 -139 -30 -4 -30 -3 -33 48 -3 50 -2 51 27 58
36 8 71 48 71 80 0 21 -4 22 -90 23 -49 0 -94 3 -100 7 -11 7 -14 287 -3 299
4 3 72 5 152 4 l146 -3 3 -170z m440 -12 c2 -166 1 -187 -17 -222 -25 -49 -82
-96 -130 -108 -53 -14 -61 -8 -61 47 0 45 2 49 29 55 34 7 68 41 73 74 3 23 2
23 -87 25 -50 1 -96 5 -103 10 -13 8 -18 287 -5 300 4 3 72 5 152 4 l146 -3 3
-182z"/>
<path d="M2216 332 c-2 -4 -1 -14 4 -22 7 -11 9 -9 7 8 -1 24 -3 26 -11 14z"/>
<path d="M2180 270 c-6 -11 -8 -20 -6 -20 3 0 10 9 16 20 6 11 8 20 6 20 -3 0
-10 -9 -16 -20z"/>
<path d="M65 260 c10 -11 20 -20 23 -20 3 0 -3 9 -13 20 -10 11 -20 20 -23 20
-3 0 3 -9 13 -20z"/>
<path d="M2123 204 c-20 -18 -22 -22 -7 -15 21 10 52 41 41 41 -3 0 -19 -12
-34 -26z"/>
<path d="M115 191 c-3 -5 -2 -12 3 -15 5 -3 9 1 9 9 0 17 -3 19 -12 6z"/>
<path d="M157 169 c12 -12 24 -21 27 -18 2 2 -8 13 -22 23 l-27 19 22 -24z"/>
<path d="M2025 138 c-10 -6 -37 -17 -60 -25 l-40 -13 36 5 c35 5 99 32 99 41
0 7 -14 4 -35 -8z"/>
<path d="M245 120 c11 -5 27 -9 35 -9 9 0 8 4 -5 9 -11 5 -27 9 -35 9 -9 0 -8
-4 5 -9z"/>
<path d="M2040 110 c-9 -6 -10 -10 -3 -10 6 0 15 5 18 10 8 12 4 12 -15 0z"/>
<path d="M313 98 c7 -4 372 -7 812 -6 440 2 699 4 575 5 -571 7 -1397 7 -1387
1z"/>
</g>
</svg>
